<svg xmlns="http://www.w3.org/2000/svg" xmlns:xlink="http://www.w3.org/1999/xlink" width="1920" zoomAndPan="magnify" viewBox="0 0 1440 809.999993" height="1080" preserveAspectRatio="xMidYMid meet" version="1.2"><g id="c25cf947b6"><path style=" stroke:none;fill-rule:nonzero;fill:#004aad;fill-opacity:1;" d="M 895.265625 322.480469 C 852.605469 134.15625 751.757812 72.257812 740.925781 48.601562 C 731.476562 35.300781 723.039062 16.402344 716.117188 0 C 714.902344 16.707031 714.261719 23.117188 698.46875 39.960938 C 674.066406 59.0625 548.683594 164.226562 538.492188 378.136719 C 528.976562 577.664062 682.605469 696.566406 703.460938 711.71875 L 705.824219 713.40625 C 710.167969 745.53125 713.882812 777.730469 716.960938 810 L 733.195312 810 C 737.042969 775.171875 742.78125 740.609375 750.410156 706.386719 C 764.484375 696.398438 770.792969 690.761719 779.097656 683 C 783.992188 678.46875 788.769531 673.8125 793.425781 669.03125 C 798.078125 664.25 802.605469 659.351562 807.003906 654.332031 C 811.402344 649.316406 815.664062 644.1875 819.796875 638.945312 C 823.925781 633.707031 827.917969 628.363281 831.765625 622.914062 C 835.617188 617.464844 839.324219 611.917969 842.882812 606.273438 C 846.445312 600.632812 849.855469 594.898438 853.113281 589.078125 C 856.375 583.257812 859.480469 577.355469 862.433594 571.371094 C 865.386719 565.386719 868.179688 559.332031 870.816406 553.199219 C 873.453125 547.070312 875.925781 540.875 878.234375 534.617188 C 880.546875 528.359375 882.695312 522.042969 884.675781 515.671875 C 886.65625 509.300781 888.46875 502.882812 890.117188 496.414062 C 891.761719 489.949219 893.238281 483.445312 894.542969 476.902344 C 895.847656 470.359375 896.980469 463.785156 897.941406 457.183594 C 898.90625 450.578125 899.695312 443.957031 900.308594 437.3125 C 900.925781 430.667969 901.367188 424.011719 901.632812 417.347656 C 901.902344 410.679688 901.992188 404.011719 901.914062 397.339844 C 902.25 369.867188 898.4375 341.246094 895.265625 322.480469 Z M 715.171875 599.0625 C 715.171875 599.0625 715.171875 319.242188 724.453125 319.273438 C 731.644531 319.273438 740.992188 680.230469 740.992188 680.230469 C 728.132812 678.710938 715.171875 620.832031 715.171875 599.0625 Z M 715.171875 599.0625 "/></g></svg>