<svg xmlns="http://www.w3.org/2000/svg" xmlns:xlink="http://www.w3.org/1999/xlink" width="1920" zoomAndPan="magnify" viewBox="0 0 1440 809.999993" height="1080" preserveAspectRatio="xMidYMid meet" version="1.2"><defs><clipPath id="99dcb34e07"><path d="M 315 0 L 1125 0 L 1125 810 L 315 810 Z M 315 0 "/></clipPath></defs><g id="569ee763ce"><g clip-rule="nonzero" clip-path="url(#99dcb34e07)"><path style=" stroke:none;fill-rule:nonzero;fill:#ffffff;fill-opacity:1;" d="M 795.9375 6.074219 L 826.3125 12.824219 L 850.949219 21.601562 L 870.863281 31.726562 L 886.050781 42.523438 L 897.523438 54 L 905.960938 65.476562 L 911.363281 76.613281 L 914.738281 86.738281 L 916.085938 95.511719 L 916.761719 102.261719 L 916.425781 106.648438 L 916.425781 286.875 L 914.738281 308.136719 L 910.351562 326.699219 L 903.261719 342.226562 L 894.488281 355.050781 L 884.363281 365.511719 L 873.226562 373.949219 L 861.414062 380.363281 L 849.601562 385.085938 L 838.460938 388.460938 L 828.335938 390.824219 L 819.5625 392.175781 L 812.476562 392.851562 L 610.988281 392.851562 L 587.699219 394.539062 L 567.789062 399.261719 L 550.914062 406.6875 L 537.074219 415.800781 L 525.9375 426.601562 L 516.824219 438.414062 L 510.074219 450.5625 L 505.011719 463.050781 L 501.636719 474.863281 L 499.273438 485.664062 L 497.925781 494.773438 L 497.25 501.863281 L 497.25 605.136719 L 421.988281 605.136719 L 414.898438 604.125 L 405.449219 601.761719 L 394.648438 597.710938 L 382.835938 591.636719 L 370.6875 582.863281 L 358.539062 570.710938 L 346.726562 555.1875 L 335.925781 535.273438 L 326.476562 510.636719 L 319.386719 480.9375 L 314.664062 445.5 L 312.976562 403.988281 L 315 362.8125 L 320.398438 327.710938 L 328.5 298.351562 L 339.300781 274.386719 L 351.449219 255.148438 L 364.949219 240.300781 L 379.125 229.164062 L 393.300781 221.0625 L 406.800781 215.664062 L 418.949219 212.289062 L 429.75 210.601562 L 437.851562 210.261719 L 443.25 210.261719 L 445.273438 210.601562 L 720.675781 210.601562 L 720.675781 182.585938 L 523.574219 182.585938 L 523.238281 89.773438 L 522.5625 77.289062 L 524.25 65.8125 L 527.960938 55.351562 L 533.699219 45.898438 L 542.136719 37.125 L 552.601562 29.363281 L 565.425781 22.613281 L 580.273438 16.539062 L 597.488281 11.476562 L 617.0625 7.425781 L 638.664062 4.050781 L 662.625 2.023438 L 688.613281 0.675781 L 716.960938 0 L 759.824219 1.6875 Z M 583.3125 72.898438 L 575.550781 84.039062 L 572.851562 97.875 L 575.550781 111.710938 L 583.3125 123.1875 L 594.449219 130.613281 L 608.289062 133.648438 L 622.125 130.613281 L 633.261719 123.1875 L 641.023438 111.710938 L 643.726562 97.875 L 641.023438 84.039062 L 633.261719 72.898438 L 622.125 65.476562 L 608.289062 62.4375 L 594.449219 65.476562 Z M 1025.101562 206.210938 L 1034.550781 208.238281 L 1045.351562 212.289062 L 1057.164062 218.363281 L 1069.3125 227.476562 L 1081.460938 239.289062 L 1093.273438 255.148438 L 1104.074219 275.0625 L 1113.523438 299.699219 L 1120.613281 329.398438 L 1125.335938 364.5 L 1127.023438 406.011719 L 1125 447.523438 L 1119.601562 482.625 L 1111.5 511.648438 L 1100.699219 535.613281 L 1088.550781 554.851562 L 1075.050781 570.039062 L 1060.875 581.175781 L 1046.699219 589.273438 L 1033.199219 594.675781 L 1021.050781 597.710938 L 1010.25 599.398438 L 1002.148438 600.074219 L 996.75 599.738281 L 719.324219 599.738281 L 719.324219 627.414062 L 916.425781 627.414062 L 916.761719 720.5625 L 917.4375 732.710938 L 915.75 744.1875 L 912.039062 754.648438 L 906.300781 764.4375 L 897.863281 772.875 L 887.398438 780.976562 L 874.574219 787.726562 L 859.726562 793.460938 L 842.511719 798.523438 L 822.9375 802.914062 L 801.335938 805.949219 L 777.375 808.3125 L 751.386719 809.664062 L 723.039062 810 L 680.175781 808.648438 L 644.0625 803.925781 L 613.6875 797.175781 L 589.050781 788.738281 L 569.136719 778.613281 L 553.949219 767.476562 L 542.476562 756 L 534.039062 744.523438 L 528.636719 733.386719 L 525.261719 723.261719 L 523.914062 714.824219 L 523.238281 708.074219 L 523.574219 703.6875 L 523.574219 523.460938 L 525.261719 501.863281 L 529.648438 483.636719 L 536.738281 468.113281 L 545.511719 455.289062 L 555.636719 444.488281 L 566.773438 436.386719 L 578.585938 429.636719 L 590.398438 424.914062 L 601.539062 421.539062 L 611.664062 419.511719 L 620.4375 418.164062 L 627.523438 417.488281 L 631.914062 417.148438 L 829.011719 417.148438 L 852.300781 415.460938 L 872.210938 410.738281 L 889.085938 403.648438 L 902.925781 394.199219 L 914.0625 383.398438 L 923.175781 371.585938 L 929.925781 359.4375 L 934.988281 347.289062 L 938.363281 335.476562 L 940.726562 324.675781 L 942.074219 315.226562 L 942.75 308.136719 L 942.75 204.863281 L 1013.289062 204.863281 L 1018.011719 205.199219 Z M 806.738281 687.148438 L 798.976562 698.289062 L 796.273438 712.125 L 798.976562 725.960938 L 806.738281 737.101562 L 817.875 744.863281 L 831.710938 747.5625 L 845.550781 744.863281 L 856.6875 737.101562 L 864.449219 725.960938 L 867.148438 712.125 L 864.449219 698.289062 L 856.6875 687.148438 L 845.550781 679.386719 L 831.710938 676.6875 L 817.875 679.386719 Z M 806.738281 687.148438 "/></g></g></svg>