<svg xmlns="http://www.w3.org/2000/svg" xmlns:xlink="http://www.w3.org/1999/xlink" width="1920" zoomAndPan="magnify" viewBox="0 0 1440 809.999993" height="1080" preserveAspectRatio="xMidYMid meet" version="1.2"><defs><clipPath id="a0687ccd06"><path d="M 315 162 L 1125 162 L 1125 648 L 315 648 Z M 315 162 "/></clipPath></defs><g id="1afc19d581"><g clip-rule="nonzero" clip-path="url(#a0687ccd06)"><path style=" stroke:none;fill-rule:nonzero;fill:#ffffff;fill-opacity:1;" d="M 720.035156 162 C 612.035156 162 544.535156 216 517.535156 324 C 558.035156 270 605.285156 249.75 659.285156 263.25 C 690.097656 270.945312 712.101562 293.289062 736.503906 318.058594 C 776.226562 358.359375 822.160156 405 922.535156 405 C 1030.535156 405 1098.035156 351 1125.035156 243 C 1084.535156 297 1037.285156 317.25 983.285156 303.75 C 952.46875 296.054688 930.464844 273.710938 906.0625 248.941406 C 866.375 208.640625 820.441406 162 720.035156 162 Z M 517.535156 405 C 409.535156 405 342.035156 459 315.035156 567 C 355.535156 513 402.785156 492.75 456.785156 506.25 C 487.597656 513.945312 509.601562 536.289062 534.003906 561.058594 C 573.726562 601.359375 619.660156 648 720.035156 648 C 828.035156 648 895.535156 594 922.535156 486 C 882.035156 540 834.785156 560.25 780.785156 546.75 C 749.96875 539.054688 727.964844 516.710938 703.5625 491.941406 C 663.875 451.640625 617.941406 405 517.535156 405 Z M 517.535156 405 "/></g></g></svg>